<svg fill="#000000" height="200px" width="200px" version="1.1" id="Layer_1" xmlns="http://www.w3.org/2000/svg" xmlns:xlink="http://www.w3.org/1999/xlink" viewBox="0 0 507.9 507.9" xml:space="preserve"><g id="SVGRepo_bgCarrier" stroke-width="0"></g><g id="SVGRepo_tracerCarrier" stroke-linecap="round" stroke-linejoin="round"></g><g id="SVGRepo_iconCarrier"> <g> <g> <path d="M437.4,183.35H278.3c-7.8,0-14.1,6.3-14.1,14.1s6.3,14.1,14.1,14.1h159.2c7.8,0,14.1-6.3,14.1-14.1 C451.6,189.75,445.2,183.35,437.4,183.35z"></path> </g> </g> <g> <g> <path d="M437.4,253.95H278.3c-7.8,0-14.1,6.3-14.1,14.1s6.3,14.1,14.1,14.1h159.2c7.8,0,14.1-6.3,14.1-14.1 C451.6,260.25,445.2,253.95,437.4,253.95z"></path> </g> </g> <g> <g> <path d="M437.4,324.55H278.3c-7.8,0-14.1,6.3-14.1,14.1c0,7.8,6.3,14.1,14.1,14.1h159.2c7.8,0,14.1-6.3,14.1-14.1 C451.6,330.85,445.2,324.55,437.4,324.55z"></path> </g> </g> <g> <g> <path d="M147.5,155.65c-27.2,0-49.4,22.2-49.4,49.4c0,27.3,22.2,49.4,49.4,49.4s49.4-22.2,49.4-49.4 C196.9,177.85,174.7,155.65,147.5,155.65z M147.5,226.35c-11.7,0-21.2-9.5-21.2-21.2c0.1-11.7,9.6-21.2,21.2-21.2 c11.7,0,21.2,9.5,21.2,21.2C168.7,216.85,159.2,226.35,147.5,226.35z"></path> </g> </g> <g> <g> <path d="M238.4,364.15c-1-49.3-41.4-88.9-90.9-88.9c-50.2,0-91.1,40.9-91.1,91.1c0,7.8,6.3,14.1,14.1,14.1h153.9 c0.1,0,0.1,0,0.1,0C239.3,380.45,238.6,364.85,238.4,364.15z M86.3,352.15c6.4-27.9,31.5-48.7,61.3-48.7 c29.8,0,54.8,20.9,61.3,48.7H86.3z"></path> </g> </g> <g> <g> <path d="M465.7,88.95H324.6v-14.1c0-7.8-6.3-14.1-14.1-14.1H197.6c-7.8,0-14.1,6.3-14.1,14.1v14.1H42.3c-23.3,0-42.3,19-42.3,42.3 v273.6c0,23.3,19,42.3,42.3,42.3h423.3c23.3,0,42.3-19,42.3-42.3v-273.6C508,107.95,489,88.95,465.7,88.95z M211.7,88.95h84.7 v28.2h-84.7V88.95z M465.7,418.95H42.3c-7.8,0-14.1-6.3-14.1-14.1v-273.6c0-7.8,6.3-14.1,14.1-14.1h141.1v14.1 c0,7.8,6.3,14.1,14.1,14.1h112.9c7.8,0,14.1-6.3,14.1-14.1v-14.1h141.1c7.8,0,14.1,6.3,14.1,14.1v273.6h0.1 C479.8,412.65,473.5,418.95,465.7,418.95z"></path> </g> </g> </g></svg>