<svg fill="#000000" viewBox="0 0 32 32" version="1.1" xmlns="http://www.w3.org/2000/svg"><g id="SVGRepo_bgCarrier" stroke-width="0"></g><g id="SVGRepo_tracerCarrier" stroke-linecap="round" stroke-linejoin="round"></g><g id="SVGRepo_iconCarrier"> <title>user</title> <path d="M20.188 21.281c1.469 0.813 2.313 2.188 2.219 3.594-0.094 0.875-0.094 0.906-1.219 1.031-0.719 0.094-5.094 0.156-9.594 0.156-5.094 0-10.406-0.063-10.813-0.156-1.5-0.406-0.688-3.188 1.344-4.469 1.563-1.031 4.75-2.563 5.594-2.75 1.188-0.25 1.344-0.969 0.031-3.313-0.313-0.531-0.688-2.125-0.719-3.813-0.063-2.688 0.5-4.531 2.844-5.406 0.438-0.156 0.938-0.25 1.406-0.25 1.563 0 3.031 0.875 3.625 2.156 0.844 1.719 0.5 6.219-0.406 7.844-1 1.875-0.906 2.438 0.25 2.75 0.75 0.188 3.094 1.344 5.438 2.625z"></path> </g></svg>