<svg viewBox="0 0 1024 1024" class="icon" version="1.1" xmlns="http://www.w3.org/2000/svg" fill="#ffffff" stroke="#ffffff">
<g id="SVGRepo_bgCarrier" stroke-width="0"></g>
<g id="SVGRepo_tracerCarrier" stroke-linecap="round" stroke-linejoin="round"></g>
<g id="SVGRepo_iconCarrier">
<path d="M264 516v-96l404-101 247 95.1v-94.3L668 190 113 339.8v333.5L528 597v115l-415 78.1V918h802V507.6L668 433z" fill="#34D399"></path>
<path d="M668 917.5h247V507.1l-247-74.6z" fill="#ffffff"></path>
<path d="M121 346v177c15.4 3.1 31.7 3.5 48-0.6 63-16.1-6.3-97.3 8.3-142.7 14.7-45.3 135.7-16 199.7-72 78-68.2 145-2.8 235-46.7 37.8-18.4 52.9-41 57.7-61l-2.7-1.4L121 346z" fill="#34D399"></path>
</g>
</svg>